# Blender 3.6.2
# www.blender.org
mtllib Shuriken.mtl
o Cube
v -0.520902 0.854915 0.534028
v -0.490199 1.120640 0.530790
v -0.534028 0.854915 -0.488087
v -0.455272 1.145085 -0.540591
v 0.501213 0.854915 0.520902
v 0.496585 1.113165 0.538561
v 0.481524 0.854915 -0.547154
v 0.474961 1.145085 -0.534028
v -0.665288 1.000000 0.684977
v -0.652162 1.000000 -0.625910
v 0.547154 1.000000 -0.639036
v 0.586532 1.000000 0.632473
v -1.000000 0.854915 0.000000
v -1.000000 1.145085 0.000000
v 1.000000 0.854915 0.000000
v 1.000000 1.145085 0.000000
v 2.000000 1.000000 0.000000
v -2.000000 1.000000 0.000000
v 0.000000 0.854915 -1.000000
v 0.000000 1.145085 -1.000000
v 0.000000 0.854915 1.000000
v 0.000000 1.145085 1.000000
v 0.000000 1.000000 2.000000
v 0.000000 1.000000 -2.000000
v 0.000000 0.948541 0.000000
v 0.000000 0.941614 0.000000
vn -0.2008 0.9239 -0.3257
vn 0.3787 0.9010 -0.2118
vn 0.1897 0.9227 0.3357
vn -0.2875 0.9420 0.1733
vn -0.0842 -0.9929 -0.0842
vn 0.1640 0.9727 -0.1640
vn -0.2975 -0.9339 0.1981
vn 0.2089 -0.9145 0.3464
vn 0.3809 -0.8990 -0.2160
vn -0.1998 -0.9243 -0.3253
vn -0.1981 -0.9348 0.2948
vn 0.2162 -0.9078 -0.3593
vn 0.1901 0.9632 0.1901
vn -0.0837 -0.9930 0.0837
vn 0.2114 0.9101 -0.3564
vn -0.1756 0.9422 0.2854
vn 0.0842 -0.9929 0.0842
vn -0.1878 0.9641 0.1878
vn -0.3219 -0.9249 -0.2024
vn 0.3569 -0.9102 0.2102
vn -0.1552 0.9756 -0.1552
vn 0.0816 -0.9933 -0.0816
vn 0.3456 0.9192 0.1886
vn -0.3163 0.9292 -0.1911
vt 0.500000 0.125000
vt 0.625000 0.125000
vt 0.625000 0.250000
vt 0.500000 0.250000
vt 0.500000 0.375000
vt 0.625000 0.375000
vt 0.625000 0.500000
vt 0.500000 0.500000
vt 0.500000 0.625000
vt 0.625000 0.625000
vt 0.625000 0.750000
vt 0.500000 0.750000
vt 0.500000 0.875000
vt 0.625000 0.875000
vt 0.625000 1.000000
vt 0.500000 1.000000
vt 0.250000 0.625000
vt 0.375000 0.625000
vt 0.375000 0.750000
vt 0.250000 0.750000
vt 0.750000 0.625000
vt 0.875000 0.625000
vt 0.875000 0.750000
vt 0.750000 0.750000
vt 0.375000 0.875000
vt 0.375000 1.000000
vt 0.375000 0.375000
vt 0.375000 0.500000
vt 0.375000 0.125000
vt 0.375000 0.250000
vt 0.375000 0.000000
vt 0.500000 0.000000
vt 0.750000 0.500000
vt 0.875000 0.500000
vt 0.250000 0.500000
vt 0.625000 0.000000
vt 0.125000 0.500000
vt 0.125000 0.625000
vt 0.125000 0.750000
s 0
f 18/1/1 14/2/1 4/3/1 10/4/1
f 24/5/2 20/6/2 8/7/2 11/8/2
f 17/9/3 16/10/3 6/11/3 12/12/3
f 23/13/4 22/14/4 2/15/4 9/16/4
f 26/17/5 15/18/5 5/19/5 21/20/5
f 25/21/6 14/22/6 2/23/6 22/24/6
f 21/25/7 23/13/7 9/16/7 1/26/7
f 15/18/8 17/9/8 12/12/8 5/19/8
f 19/27/9 24/5/9 11/8/9 7/28/9
f 13/29/10 18/1/10 10/4/10 3/30/10
f 1/31/11 9/32/11 18/1/11 13/29/11
f 7/28/12 11/8/12 17/9/12 15/18/12
f 20/33/13 4/34/13 14/22/13 25/21/13
f 19/35/14 7/28/14 15/18/14 26/17/14
f 11/8/15 8/7/15 16/10/15 17/9/15
f 9/32/16 2/36/16 14/2/16 18/1/16
f 3/37/17 19/35/17 26/17/17 13/38/17
f 8/7/18 20/33/18 25/21/18 16/10/18
f 3/30/19 10/4/19 24/5/19 19/27/19
f 5/19/20 12/12/20 23/13/20 21/25/20
f 16/10/21 25/21/21 22/24/21 6/11/21
f 13/38/22 26/17/22 21/20/22 1/39/22
f 12/12/23 6/11/23 22/14/23 23/13/23
f 10/4/24 4/3/24 20/6/24 24/5/24
